name Walk8.mot
datacolumns 19
datarows 17
range 2.24200000 2.25800000
endheader

                time	   L_ground_force_vx	   L_ground_force_vy	   L_ground_force_vz	   L_ground_force_px	   L_ground_force_py	   L_ground_force_pz	   R_ground_force_vx	   R_ground_force_vy	   R_ground_force_vz	   R_ground_force_px	   R_ground_force_py	   R_ground_force_pz	   L_ground_torque_x	   L_ground_torque_y	   L_ground_torque_z	   R_ground_torque_x	   R_ground_torque_y	   R_ground_torque_z	
          2.24200000	         42.59665277	        934.99878612	         60.81949491	         -0.26346959	          0.00000000	         -0.02892032	          0.00067129	         -0.02303198	         -0.00101173	          0.00001041	          0.00000000	          0.00000525	          0.00000000	         -2.37958996	          0.00000000	          0.00000000	         -0.00003370	          0.00000000	
          2.24300000	         43.17876199	        935.73716817	         60.89805300	         -0.26312307	          0.00000000	         -0.02903333	          0.00022046	         -0.02015039	         -0.00065169	          0.00001359	          0.00000000	          0.00000674	          0.00000000	         -2.36401573	          0.00000000	          0.00000000	          0.00003221	          0.00000000	
          2.24400000	         43.76403358	        936.47378677	         60.97811151	         -0.26277591	          0.00000000	         -0.02914701	         -0.00027317	         -0.01691781	         -0.00025551	          0.00001701	          0.00000000	          0.00000835	          0.00000000	         -2.34853216	          0.00000000	          0.00000000	          0.00010412	          0.00000000	
          2.24500000	         44.35207911	        937.20860227	         61.05963682	         -0.26242801	          0.00000000	         -0.02926134	         -0.00081155	         -0.01331498	          0.00017854	          0.00002068	          0.00000000	          0.00001007	          0.00000000	         -2.33313197	          0.00000000	          0.00000000	          0.00018228	          0.00000000	
          2.24600000	         44.94250936	        937.94158398	         61.14259281	         -0.26207931	          0.00000000	         -0.02937630	         -0.00139660	         -0.00932237	          0.00065219	          0.00002460	          0.00000000	          0.00001192	          0.00000000	         -2.31780751	          0.00000000	          0.00000000	          0.00026695	          0.00000000	
          2.24700000	         45.53493513	        938.67270682	         61.22694121	         -0.26172972	          0.00000000	         -0.02949186	         -0.00203025	         -0.00492024	          0.00116716	          0.00002879	          0.00000000	          0.00001388	          0.00000000	         -2.30255106	          0.00000000	          0.00000000	          0.00035838	          0.00000000	
          2.24800000	         46.12896813	        939.40194954	         61.31264244	         -0.26137919	          0.00000000	         -0.02960801	         -0.00271440	         -0.00008872	          0.00172516	          0.00003325	          0.00000000	          0.00001597	          0.00000000	         -2.28735492	          0.00000000	          0.00000000	          0.00045683	          0.00000000	
          2.24900000	         46.72422185	        940.12929395	         61.39965654	         -0.26102763	          0.00000000	         -0.02972472	         -0.00345091	          0.00519213	          0.00232789	          0.00003798	          0.00000000	          0.00001818	          0.00000000	         -2.27221152	          0.00000000	          0.00000000	          0.00056255	          0.00000000	
          2.25000000	         47.32031264	        940.85472481	         61.48794421	         -0.26067497	          0.00000000	         -0.02984196	         -0.00424161	          0.01094227	          0.00297702	          0.00004300	          0.00000000	          0.00002053	          0.00000000	         -2.25711324	          0.00000000	          0.00000000	          0.00067576	          0.00000000	
          2.25100000	         47.91686097	        941.57822951	         61.57746756	         -0.26032115	          0.00000000	         -0.02995971	         -0.00508827	          0.01718154	          0.00367417	          0.00004830	          0.00000000	          0.00002301	          0.00000000	         -2.24205223	          0.00000000	          0.00000000	          0.00079671	          0.00000000	
          2.25200000	         48.51349266	        942.29979712	         61.66819063	         -0.25996610	          0.00000000	         -0.03007794	         -0.00599259	          0.02392964	          0.00442093	          0.00005390	          0.00000000	          0.00002563	          0.00000000	         -2.22702012	          0.00000000	          0.00000000	          0.00092560	          0.00000000	
          2.25300000	         49.10984021	        943.01941672	         61.76007958	         -0.25960975	          0.00000000	         -0.03019664	         -0.00695619	          0.03120598	          0.00521882	          0.00005980	          0.00000000	          0.00002838	          0.00000000	         -2.21200771	          0.00000000	          0.00000000	          0.00106264	          0.00000000	
          2.25400000	         49.70554385	        943.73707477	         61.85310280	         -0.25925202	          0.00000000	         -0.03031575	         -0.00798061	          0.03902960	          0.00606931	          0.00006599	          0.00000000	          0.00003128	          0.00000000	         -2.19700478	          0.00000000	          0.00000000	          0.00120804	          0.00000000	
          2.25500000	         50.30025224	        944.45275205	         61.94723090	         -0.25889285	          0.00000000	         -0.03043526	         -0.00906727	          0.04741904	          0.00697376	          0.00007249	          0.00000000	          0.00003431	          0.00000000	         -2.18199990	          0.00000000	          0.00000000	          0.00136195	          0.00000000	
          2.25600000	         50.89362290	        945.16642014	         62.04243675	         -0.25853217	          0.00000000	         -0.03055514	         -0.01021746	          0.05639223	          0.00793345	          0.00007930	          0.00000000	          0.00003748	          0.00000000	         -2.16698050	          0.00000000	          0.00000000	          0.00152454	          0.00000000	
          2.25700000	         51.48532215	        945.87803819	         62.13869558	         -0.25816990	          0.00000000	         -0.03067536	         -0.01143233	          0.06596636	          0.00894957	          0.00008641	          0.00000000	          0.00004079	          0.00000000	         -2.15193298	          0.00000000	          0.00000000	          0.00169595	          0.00000000	
          2.25800000	         52.07502480	        946.58755001	         62.23598516	         -0.25780598	          0.00000000	         -0.03079587	         -0.01271287	          0.07615773	          0.01002314	          0.00009382	          0.00000000	          0.00004424	          0.00000000	         -2.13684311	          0.00000000	          0.00000000	          0.00187628	          0.00000000	
